<svg data-v-423bf9ae="" xmlns="http://www.w3.org/2000/svg" viewBox="0 0 457 90" class="iconLeft"><!----><!----><!----><g data-v-423bf9ae="" id="74842781-7f7f-4cee-82af-b5013bff9b6e" fill="white" transform="matrix(5.988023678532963,0,0,5.988023678532963,92.58424529275604,11.047902486591376)"><path d="M3.77 5.96L4.89 5.96L4.89 3.43L3.77 3.43L3.77 3.29C3.77 3.15 4.05 3.11 4.91 3.11L4.91 0.84C4.91 0.84 3.93 0.66 3.04 0.66C1.13 0.66 0.63 1.41 0.63 3.37L0.63 3.43L0.25 3.43L0.25 5.96L0.63 5.96L0.63 10.50L3.77 10.50ZM8.96 3.25C6.54 3.25 5.22 4.27 5.22 6.96C5.22 9.69 6.54 10.68 8.96 10.68C11.38 10.68 12.70 9.69 12.70 6.96C12.70 4.27 11.38 3.25 8.96 3.25ZM8.96 8.15C8.53 8.15 8.39 7.87 8.39 6.96C8.39 6.06 8.53 5.78 8.96 5.78C9.39 5.78 9.53 6.05 9.53 6.96C9.53 7.87 9.39 8.15 8.96 8.15ZM16.44 10.50L16.44 6.05C16.44 6.05 16.77 5.95 17.04 5.95C17.37 5.95 17.54 6.31 17.54 7.17L17.54 10.50L20.68 10.50L20.68 6.96C20.68 4.19 19.96 3.25 17.96 3.25C17.30 3.25 16.42 3.79 16.42 3.79L16.42 3.43L13.30 3.43L13.30 10.50ZM21.34 6.16L23.41 6.16L21.34 7.94L21.34 10.50L27.69 10.50L27.69 7.77L25.51 7.77L27.65 5.85L27.65 3.43L21.34 3.43ZM31.95 3.25C29.53 3.25 28.21 4.27 28.21 6.96C28.21 9.69 29.53 10.68 31.95 10.68C34.37 10.68 35.69 9.69 35.69 6.96C35.69 4.27 34.37 3.25 31.95 3.25ZM31.95 8.15C31.51 8.15 31.37 7.87 31.37 6.96C31.37 6.06 31.51 5.78 31.95 5.78C32.38 5.78 32.52 6.05 32.52 6.96C32.52 7.87 32.38 8.15 31.95 8.15ZM36.27 10.50L39.47 10.50L39.47 7.71L36.27 7.71ZM43.61 5.96L44.73 5.96L44.73 3.43L43.61 3.43L43.61 3.29C43.61 3.15 43.89 3.11 44.76 3.11L44.76 0.84C44.76 0.84 43.78 0.66 42.88 0.66C40.98 0.66 40.47 1.41 40.47 3.37L40.47 3.43L40.10 3.43L40.10 5.96L40.47 5.96L40.47 10.50L43.61 10.50ZM49.41 3.43L49.41 7.90C49.41 7.90 49.10 7.98 48.79 7.98C48.45 7.98 48.31 7.73 48.31 6.87L48.31 3.43L45.18 3.43L45.18 7.08C45.18 9.51 45.81 10.68 47.84 10.68C48.54 10.68 49.43 10.16 49.43 10.16L49.43 10.50L52.54 10.50L52.54 3.43ZM56.46 10.50L56.46 6.05C56.46 6.05 56.80 5.95 57.06 5.95C57.40 5.95 57.57 6.31 57.57 7.17L57.57 10.50L60.70 10.50L60.70 6.96C60.70 4.19 59.99 3.25 57.99 3.25C57.33 3.25 56.45 3.79 56.45 3.79L56.45 3.43L53.33 3.43L53.33 10.50Z"></path></g><!----><g data-v-423bf9ae="" id="f3b0b9ef-4bd9-4a80-a367-30ad002dbf9b" transform="matrix(2.8125,0,0,2.8125,-7.170000076293945,0)" stroke="none" fill="white"><path d="M2.83 18.247l26.34-9.124L2.83 0zM29.17 32V13.753L2.83 22.877z"></path></g><!----></svg>